<svg width="25" height="25" viewBox="0 0 25 25" fill="none" xmlns="http://www.w3.org/2000/svg">
<path fill-rule="evenodd" clip-rule="evenodd" d="M5.23565 11.6562H8.31049C8.47274 9.32285 9.28426 7.4305 10.089 6.08928C10.222 5.86763 10.355 5.66056 10.4853 5.46855C7.68785 6.26859 5.5761 8.69301 5.23565 11.6562ZM8.3105 13.3438H5.23565C5.5761 16.307 7.6879 18.7315 10.4855 19.5315C10.3551 19.3394 10.222 19.1323 10.089 18.9106C9.28427 17.5694 8.47276 15.6771 8.3105 13.3438ZM10.0028 13.3438H14.9972C14.8391 15.2962 14.1548 16.891 13.464 18.0424C13.1195 18.6166 12.7756 19.0764 12.5 19.41C12.2244 19.0764 11.8805 18.6166 11.536 18.0424C10.8452 16.891 10.1609 15.2962 10.0028 13.3438ZM14.9973 11.6562H10.0028C10.1609 9.70377 10.8452 8.10887 11.536 6.95748C11.8805 6.38327 12.2244 5.92342 12.5 5.58991C12.7756 5.92342 13.1195 6.38327 13.464 6.95748C14.1548 8.10887 14.8391 9.70377 14.9973 11.6562ZM16.6895 13.3438C16.5273 15.6771 15.7157 17.5694 14.911 18.9106C14.778 19.1323 14.6449 19.3394 14.5145 19.5315C17.3121 18.7315 19.4239 16.307 19.7644 13.3438H16.6895ZM19.7644 11.6562H16.6895C16.5273 9.32285 15.7157 7.4305 14.911 6.08928C14.778 5.86763 14.6449 5.66056 14.5147 5.46854C17.3122 6.26858 19.4239 8.69301 19.7644 11.6562ZM12.5 3.5C7.52943 3.5 3.5 7.52943 3.5 12.5C3.5 17.4706 7.52943 21.5 12.5 21.5C17.4706 21.5 21.5 17.4706 21.5 12.5C21.5 7.52943 17.4706 3.5 12.5 3.5Z" fill="#8895A7"/>
</svg>
