<svg width="28" height="28" viewBox="0 0 28 28" fill="none" xmlns="http://www.w3.org/2000/svg">
    <path d="M14.0002 2.33203C7.56016 2.33203 2.3335 7.5587 2.3335 13.9987C2.3335 20.4387 7.56016 25.6654 14.0002 25.6654C20.4402 25.6654 25.6668 20.4387 25.6668 13.9987C25.6668 7.5587 20.4402 2.33203 14.0002 2.33203ZM17.9435 14.5004L19.6468 15.4804C20.3818 15.9004 20.6268 16.8454 20.2068 17.5804C19.7868 18.3154 18.8418 18.5604 18.1068 18.1404L16.4035 17.1604C16.0185 16.9387 15.5285 17.2187 15.5285 17.662V19.622C15.5285 20.462 14.8402 21.162 13.9885 21.162C13.1368 21.162 12.4485 20.4737 12.4485 19.622V17.662C12.4485 17.2187 11.9585 16.927 11.5735 17.1604L9.87016 18.1404C9.13516 18.5604 8.19017 18.3154 7.77017 17.5804C7.35017 16.8454 7.59516 15.9004 8.33016 15.4804L10.0335 14.5004C10.4185 14.2787 10.4185 13.7187 10.0335 13.4854L8.33016 12.5054C7.59516 12.0854 7.35017 11.1404 7.77017 10.4054C8.19017 9.67036 9.13516 9.42537 9.87016 9.84537L11.5735 10.8254C11.9585 11.047 12.4485 10.767 12.4485 10.3237V8.3637C12.4485 7.5237 13.1368 6.82371 13.9885 6.82371C14.8402 6.82371 15.5285 7.51203 15.5285 8.3637V10.3237C15.5285 10.767 16.0185 11.0587 16.4035 10.8254L18.1068 9.84537C18.8418 9.42537 19.7868 9.67036 20.2068 10.4054C20.6268 11.1404 20.3818 12.0854 19.6468 12.5054L17.9435 13.4854C17.5585 13.7187 17.5585 14.2787 17.9435 14.5004Z" fill="white"/>
</svg>