<svg width="140" height="28" viewBox="0 0 140 28" fill="none" xmlns="http://www.w3.org/2000/svg">
    <path d="M14.0002 2.33203C7.56016 2.33203 2.3335 7.5587 2.3335 13.9987C2.3335 20.4387 7.56016 25.6654 14.0002 25.6654C20.4402 25.6654 25.6668 20.4387 25.6668 13.9987C25.6668 7.5587 20.4402 2.33203 14.0002 2.33203ZM17.9435 14.5004L19.6468 15.4804C20.3818 15.9004 20.6268 16.8454 20.2068 17.5804C19.7868 18.3154 18.8418 18.5604 18.1068 18.1404L16.4035 17.1604C16.0185 16.9387 15.5285 17.2187 15.5285 17.662V19.622C15.5285 20.462 14.8402 21.162 13.9885 21.162C13.1368 21.162 12.4485 20.4737 12.4485 19.622V17.662C12.4485 17.2187 11.9585 16.927 11.5735 17.1604L9.87016 18.1404C9.13516 18.5604 8.19017 18.3154 7.77017 17.5804C7.35017 16.8454 7.59516 15.9004 8.33016 15.4804L10.0335 14.5004C10.4185 14.2787 10.4185 13.7187 10.0335 13.4854L8.33016 12.5054C7.59516 12.0854 7.35017 11.1404 7.77017 10.4054C8.19017 9.67036 9.13516 9.42537 9.87016 9.84537L11.5735 10.8254C11.9585 11.047 12.4485 10.767 12.4485 10.3237V8.3637C12.4485 7.5237 13.1368 6.82371 13.9885 6.82371C14.8402 6.82371 15.5285 7.51203 15.5285 8.3637V10.3237C15.5285 10.767 16.0185 11.0587 16.4035 10.8254L18.1068 9.84537C18.8418 9.42537 19.7868 9.67036 20.2068 10.4054C20.6268 11.1404 20.3818 12.0854 19.6468 12.5054L17.9435 13.4854C17.5585 13.7187 17.5585 14.2787 17.9435 14.5004Z" fill="#121A26"/>
    <path d="M40.152 21H43.176V15.4373L48.3093 7.07466H45.0613L41.776 12.7307H41.72L38.3973 7.07466H34.9813L40.152 15.456V21ZM52.6066 21.2613C55.6866 21.2613 58.0386 19.0213 58.0386 15.8293C58.0386 12.6 55.6866 10.3973 52.6066 10.3973C49.5639 10.3973 47.1746 12.6 47.1746 15.8293C47.1746 19.04 49.5639 21.2613 52.6066 21.2613ZM52.6066 18.5733C51.3746 18.5733 50.1986 17.584 50.1986 15.8293C50.1986 14.0747 51.3746 13.0853 52.6066 13.0853C53.8386 13.0853 55.0333 14.0747 55.0333 15.8293C55.0333 17.5653 53.8386 18.5733 52.6066 18.5733ZM64.5215 21.2613C67.4708 21.2613 69.2628 19.4133 69.2628 16.8V10.6587H66.2761V16.7813C66.2761 17.9573 65.6228 18.5733 64.5215 18.5733C63.4388 18.5733 62.8228 17.9573 62.8228 16.8V10.6587H59.8361V16.8C59.8361 19.4133 61.5908 21.2613 64.5215 21.2613ZM71.6153 21H74.6019V15.9413C74.6019 14 75.7966 13.328 77.0473 13.328C77.3273 13.328 77.6259 13.3467 77.9059 13.4213V10.6213C77.6819 10.5653 77.4393 10.5467 77.1219 10.5467C76.2073 10.5467 75.0126 10.9573 74.3219 12.208H74.2846L73.9859 10.6587H71.6153V21ZM91.9336 13.8507C93.091 13.3467 93.9683 12.3573 93.9683 10.808C93.9683 8.736 92.307 7.07466 89.1523 7.07466H83.9443V21H89.3763C92.7363 21 94.3416 19.1893 94.3416 17.0987C94.3416 15.568 93.5016 14.3733 91.9336 13.8507ZM86.9683 9.65067H89.0963C90.3843 9.65067 91.0936 10.3227 91.0936 11.2373C91.0936 12.1333 90.403 12.8613 89.0403 12.8613H86.9683V9.65067ZM89.1523 18.424H86.9683V15.008H89.2083C90.515 15.008 91.3736 15.68 91.3736 16.7067C91.3736 17.696 90.6083 18.424 89.1523 18.424ZM96.3522 21H99.3389V15.9413C99.3389 14 100.534 13.328 101.784 13.328C102.064 13.328 102.363 13.3467 102.643 13.4213V10.6213C102.419 10.5653 102.176 10.5467 101.859 10.5467C100.944 10.5467 99.7496 10.9573 99.0589 12.208H99.0216L98.7229 10.6587H96.3522V21ZM108.004 21.2613C109.553 21.2613 110.729 20.496 111.401 19.4133L111.7 21H114.22V10.6587H111.7L111.401 12.2453C110.729 11.1813 109.553 10.3973 108.004 10.3973C105.671 10.3973 103.412 12.5627 103.412 15.8667C103.412 19.096 105.671 21.2613 108.004 21.2613ZM108.881 18.5733C107.463 18.5733 106.417 17.416 106.417 15.8293C106.417 14.2613 107.463 13.0853 108.881 13.0853C110.263 13.0853 111.289 14.224 111.289 15.8293C111.289 17.4347 110.263 18.5733 108.881 18.5733ZM122.483 10.3973C121.064 10.3973 119.981 11.144 119.365 12.1147H119.309L119.011 10.6587H116.696V21H119.683V14.8773C119.683 13.8507 120.411 13.104 121.475 13.104C122.557 13.104 123.117 13.6827 123.117 14.952V21H126.104V14.0933C126.104 11.7787 124.723 10.3973 122.483 10.3973ZM132.596 21.2613C134.071 21.2613 135.266 20.496 135.938 19.4133L136.236 21H138.756V6.01067H135.77V12.1707C135.135 11.1067 133.959 10.3973 132.559 10.3973C130.151 10.3973 127.948 12.5253 127.948 15.8293C127.948 19.1333 130.188 21.2613 132.596 21.2613ZM133.399 18.5733C131.999 18.5733 130.954 17.416 130.954 15.8293C130.954 14.2613 131.999 13.0853 133.399 13.0853C134.78 13.0853 135.807 14.224 135.807 15.8293C135.807 17.4347 134.78 18.5733 133.399 18.5733Z" fill="#121A26"/>
</svg>
