<!--<svg viewBox="0 0 126 20" fill="none" xmlns="http://www.w3.org/2000/svg">-->
<!--    <path d="M0.00245403 15.9738H3.73665V10.714C3.73665 7.45424 5.32522 6.00228 8.55798 6.00228V2.00387C5.49291 2.00387 4.07122 3.78467 3.68103 4.90697V2.27708H0L0.00245403 15.9738ZM17.6984 16.2478C19.5367 16.2577 21.3384 15.7343 22.8853 14.741L21.4882 12.1144C20.3606 12.8188 19.0557 13.1877 17.7262 13.1778C16.8538 13.2486 15.9847 13.0062 15.2749 12.4941C14.565 11.982 14.0609 11.2337 13.8529 10.3835H23.9684C24.0198 9.94718 24.0471 9.50834 24.0502 9.06899C24.0722 8.15967 23.9143 7.25497 23.5854 6.40692C23.2566 5.55887 22.7633 4.78419 22.134 4.12744C21.5047 3.4707 20.7518 2.94484 19.9186 2.58012C19.0853 2.2154 18.1882 2.019 17.2787 2.00223C16.3344 1.98567 15.3963 2.15785 14.5194 2.50867C13.6425 2.85948 12.8445 3.38188 12.1722 4.0452C11.4999 4.70853 10.9668 5.49944 10.6042 6.37153C10.2416 7.24362 10.0568 8.17934 10.0607 9.12379C10.0623 13.6449 13.6296 16.247 17.6984 16.247V16.2478ZM13.7965 7.9475C13.936 7.15048 14.3492 6.4271 14.9649 5.90207C15.5805 5.37705 16.3601 5.08327 17.1691 5.07139C17.9851 5.05748 18.7781 5.34208 19.399 5.87171C20.0199 6.40134 20.426 7.13952 20.5409 7.9475H13.7965ZM26.5042 15.9738H30.2384V9.04363C30.2384 6.9618 31.4924 5.48285 33.3599 5.48285C35.2552 5.48285 35.7845 6.55117 35.7845 8.55037V15.9738H39.5187V8.08493C39.5187 4.33191 38.2369 2.00387 34.5583 2.00387C33.7082 1.97117 32.863 2.14611 32.0958 2.51355C31.3285 2.881 30.6624 3.42988 30.155 4.11269V2.27708H26.5042V15.9738ZM48.0456 16.2478C48.8683 16.2792 49.6873 16.1229 50.4406 15.7907C51.1939 15.4585 51.8617 14.9591 52.3933 14.3304V15.9738H56.044V2.2779H52.3933V3.94909C51.8616 3.31879 51.1944 2.8166 50.4417 2.47994C49.6889 2.14328 48.8699 1.98083 48.0456 2.00469C44.2009 2.00469 41.7469 5.18182 41.7469 9.12625C41.7469 13.0707 44.2001 16.247 48.0464 16.247L48.0456 16.2478ZM48.9936 12.8506C48.5171 12.8493 48.0459 12.7499 47.6094 12.5587C47.1729 12.3675 46.7804 12.0885 46.4563 11.7391C46.1322 11.3897 45.8835 10.9773 45.7256 10.5277C45.5676 10.0781 45.5039 9.60074 45.5384 9.12543C45.5062 8.65062 45.5716 8.17426 45.7303 7.72562C45.8891 7.27699 46.1379 6.86557 46.4615 6.51666C46.7852 6.16774 47.1767 5.88871 47.6122 5.69672C48.0476 5.50473 48.5178 5.40383 48.9936 5.40023C50.9168 5.40023 52.3098 6.9888 52.3098 9.12543C52.3098 11.3169 50.9168 12.8506 48.9936 12.8506ZM58.8866 19.9182H62.6208V14.4122C63.1468 15.0053 63.7957 15.4767 64.5224 15.7936C65.2491 16.1104 66.0361 16.2652 66.8286 16.247C70.6732 16.247 73.1821 13.0699 73.1821 9.09762C73.1821 5.18101 70.7281 2.00305 66.8834 2.00305C66.045 1.97585 65.2109 2.13354 64.4403 2.46491C63.6697 2.79628 62.9815 3.29322 62.4245 3.92046V2.27708H58.8866V19.9182ZM65.9125 12.8506C63.9893 12.8506 62.5963 11.2891 62.5963 9.12543C62.5963 6.93399 64.0171 5.40023 65.9125 5.40023C66.3894 5.39971 66.8613 5.49786 67.2986 5.6885C67.7358 5.87914 68.1288 6.15815 68.453 6.50801C68.7772 6.85786 69.0255 7.27099 69.1824 7.72143C69.3392 8.17187 69.4012 8.64988 69.3644 9.12543C69.4012 9.60098 69.3392 10.079 69.1824 10.5294C69.0255 10.9799 68.7772 11.393 68.453 11.7429C68.1288 12.0927 67.7358 12.3717 67.2986 12.5624C66.8613 12.753 66.3894 12.8511 65.9125 12.8506ZM81.4873 16.247C82.31 16.2784 83.1291 16.1221 83.8823 15.7899C84.6356 15.4577 85.3034 14.9583 85.835 14.3296V15.9738H89.4858V2.2779H85.835V3.94909C85.3033 3.31879 84.6362 2.8166 83.8834 2.47994C83.1306 2.14328 82.3116 1.98083 81.4873 2.00469C77.6427 2.00469 75.1886 5.18182 75.1886 9.12625C75.1886 13.0707 77.641 16.247 81.4873 16.247ZM82.4362 12.8506C81.9596 12.8493 81.4884 12.7499 81.0519 12.5587C80.6154 12.3675 80.2229 12.0885 79.8988 11.7391C79.5747 11.3897 79.326 10.9773 79.1681 10.5277C79.0102 10.0781 78.9465 9.60074 78.9809 9.12543C78.9488 8.65062 79.0141 8.17426 79.1729 7.72562C79.3316 7.27699 79.5805 6.86557 79.9041 6.51666C80.2277 6.16774 80.6193 5.88871 81.0547 5.69672C81.4902 5.50473 81.9603 5.40383 82.4362 5.40023C84.3593 5.40023 85.7524 6.9888 85.7524 9.12543C85.7507 11.3169 84.3577 12.8506 82.4362 12.8506ZM93.7492 20C95.4768 20 98.0969 19.726 99.6012 16.3566L105.788 2.27708H102.054L99.5178 8.60436C99.211 9.39864 98.6262 11.015 98.6262 11.015C98.6262 11.015 98.1247 9.64568 97.7067 8.68698L94.892 2.27708H91.1021L96.9263 14.4114L96.6196 15.0143C96.1181 16.0826 95.4744 16.6576 93.7492 16.6576V20Z" fill="white"/>-->
<!--    <path d="M124.949 11.6914L108.788 11.6914" stroke="#2843B4" stroke-width="2.45402"/>-->
<!--    <path d="M124.949 1.99934L108.788 6.30859" stroke="#2843B4" stroke-width="2.45402"/>-->
<!--</svg>-->
<svg width="140" height="28" viewBox="0 0 140 28" fill="none" xmlns="http://www.w3.org/2000/svg">
<path d="M14.0002 2.33203C7.56016 2.33203 2.3335 7.5587 2.3335 13.9987C2.3335 20.4387 7.56016 25.6654 14.0002 25.6654C20.4402 25.6654 25.6668 20.4387 25.6668 13.9987C25.6668 7.5587 20.4402 2.33203 14.0002 2.33203ZM17.9435 14.5004L19.6468 15.4804C20.3818 15.9004 20.6268 16.8454 20.2068 17.5804C19.7868 18.3154 18.8418 18.5604 18.1068 18.1404L16.4035 17.1604C16.0185 16.9387 15.5285 17.2187 15.5285 17.662V19.622C15.5285 20.462 14.8402 21.162 13.9885 21.162C13.1368 21.162 12.4485 20.4737 12.4485 19.622V17.662C12.4485 17.2187 11.9585 16.927 11.5735 17.1604L9.87016 18.1404C9.13516 18.5604 8.19017 18.3154 7.77017 17.5804C7.35017 16.8454 7.59516 15.9004 8.33016 15.4804L10.0335 14.5004C10.4185 14.2787 10.4185 13.7187 10.0335 13.4854L8.33016 12.5054C7.59516 12.0854 7.35017 11.1404 7.77017 10.4054C8.19017 9.67036 9.13516 9.42537 9.87016 9.84537L11.5735 10.8254C11.9585 11.047 12.4485 10.767 12.4485 10.3237V8.3637C12.4485 7.5237 13.1368 6.82371 13.9885 6.82371C14.8402 6.82371 15.5285 7.51203 15.5285 8.3637V10.3237C15.5285 10.767 16.0185 11.0587 16.4035 10.8254L18.1068 9.84537C18.8418 9.42537 19.7868 9.67036 20.2068 10.4054C20.6268 11.1404 20.3818 12.0854 19.6468 12.5054L17.9435 13.4854C17.5585 13.7187 17.5585 14.2787 17.9435 14.5004Z" fill="white"/>
<path d="M40.152 21H43.176V15.4373L48.3093 7.07466H45.0613L41.776 12.7307H41.72L38.3973 7.07466H34.9813L40.152 15.456V21ZM52.6066 21.2613C55.6866 21.2613 58.0386 19.0213 58.0386 15.8293C58.0386 12.6 55.6866 10.3973 52.6066 10.3973C49.5639 10.3973 47.1746 12.6 47.1746 15.8293C47.1746 19.04 49.5639 21.2613 52.6066 21.2613ZM52.6066 18.5733C51.3746 18.5733 50.1986 17.584 50.1986 15.8293C50.1986 14.0747 51.3746 13.0853 52.6066 13.0853C53.8386 13.0853 55.0333 14.0747 55.0333 15.8293C55.0333 17.5653 53.8386 18.5733 52.6066 18.5733ZM64.5215 21.2613C67.4708 21.2613 69.2628 19.4133 69.2628 16.8V10.6587H66.2761V16.7813C66.2761 17.9573 65.6228 18.5733 64.5215 18.5733C63.4388 18.5733 62.8228 17.9573 62.8228 16.8V10.6587H59.8361V16.8C59.8361 19.4133 61.5908 21.2613 64.5215 21.2613ZM71.6153 21H74.6019V15.9413C74.6019 14 75.7966 13.328 77.0473 13.328C77.3273 13.328 77.6259 13.3467 77.9059 13.4213V10.6213C77.6819 10.5653 77.4393 10.5467 77.1219 10.5467C76.2073 10.5467 75.0126 10.9573 74.3219 12.208H74.2846L73.9859 10.6587H71.6153V21ZM91.9336 13.8507C93.091 13.3467 93.9683 12.3573 93.9683 10.808C93.9683 8.736 92.307 7.07466 89.1523 7.07466H83.9443V21H89.3763C92.7363 21 94.3416 19.1893 94.3416 17.0987C94.3416 15.568 93.5016 14.3733 91.9336 13.8507ZM86.9683 9.65067H89.0963C90.3843 9.65067 91.0936 10.3227 91.0936 11.2373C91.0936 12.1333 90.403 12.8613 89.0403 12.8613H86.9683V9.65067ZM89.1523 18.424H86.9683V15.008H89.2083C90.515 15.008 91.3736 15.68 91.3736 16.7067C91.3736 17.696 90.6083 18.424 89.1523 18.424ZM96.3522 21H99.3389V15.9413C99.3389 14 100.534 13.328 101.784 13.328C102.064 13.328 102.363 13.3467 102.643 13.4213V10.6213C102.419 10.5653 102.176 10.5467 101.859 10.5467C100.944 10.5467 99.7496 10.9573 99.0589 12.208H99.0216L98.7229 10.6587H96.3522V21ZM108.004 21.2613C109.553 21.2613 110.729 20.496 111.401 19.4133L111.7 21H114.22V10.6587H111.7L111.401 12.2453C110.729 11.1813 109.553 10.3973 108.004 10.3973C105.671 10.3973 103.412 12.5627 103.412 15.8667C103.412 19.096 105.671 21.2613 108.004 21.2613ZM108.881 18.5733C107.463 18.5733 106.417 17.416 106.417 15.8293C106.417 14.2613 107.463 13.0853 108.881 13.0853C110.263 13.0853 111.289 14.224 111.289 15.8293C111.289 17.4347 110.263 18.5733 108.881 18.5733ZM122.483 10.3973C121.064 10.3973 119.981 11.144 119.365 12.1147H119.309L119.011 10.6587H116.696V21H119.683V14.8773C119.683 13.8507 120.411 13.104 121.475 13.104C122.557 13.104 123.117 13.6827 123.117 14.952V21H126.104V14.0933C126.104 11.7787 124.723 10.3973 122.483 10.3973ZM132.596 21.2613C134.071 21.2613 135.266 20.496 135.938 19.4133L136.236 21H138.756V6.01067H135.77V12.1707C135.135 11.1067 133.959 10.3973 132.559 10.3973C130.151 10.3973 127.948 12.5253 127.948 15.8293C127.948 19.1333 130.188 21.2613 132.596 21.2613ZM133.399 18.5733C131.999 18.5733 130.954 17.416 130.954 15.8293C130.954 14.2613 131.999 13.0853 133.399 13.0853C134.78 13.0853 135.807 14.224 135.807 15.8293C135.807 17.4347 134.78 18.5733 133.399 18.5733Z" fill="white"/>
</svg>
