<svg width="28" height="28" viewBox="0 0 28 28" fill="none" xmlns="http://www.w3.org/2000/svg">
    <path d="M14 2.33203C7.56004 2.33203 2.33337 7.5587 2.33337 13.9987C2.33337 20.4387 7.56004 25.6654 14 25.6654C20.44 25.6654 25.6667 20.4387 25.6667 13.9987C25.6667 7.5587 20.44 2.33203 14 2.33203ZM17.9434 14.5004L19.6467 15.4804C20.3817 15.9004 20.6267 16.8454 20.2067 17.5804C19.7867 18.3154 18.8417 18.5604 18.1067 18.1404L16.4034 17.1604C16.0184 16.9387 15.5284 17.2187 15.5284 17.662V19.622C15.5284 20.462 14.84 21.162 13.9884 21.162C13.1367 21.162 12.4484 20.4737 12.4484 19.622V17.662C12.4484 17.2187 11.9584 16.927 11.5734 17.1604L9.87004 18.1404C9.13504 18.5604 8.19005 18.3154 7.77005 17.5804C7.35005 16.8454 7.59504 15.9004 8.33004 15.4804L10.0334 14.5004C10.4184 14.2787 10.4184 13.7187 10.0334 13.4854L8.33004 12.5054C7.59504 12.0854 7.35005 11.1404 7.77005 10.4054C8.19005 9.67036 9.13504 9.42537 9.87004 9.84537L11.5734 10.8254C11.9584 11.047 12.4484 10.767 12.4484 10.3237V8.3637C12.4484 7.5237 13.1367 6.82371 13.9884 6.82371C14.84 6.82371 15.5284 7.51203 15.5284 8.3637V10.3237C15.5284 10.767 16.0184 11.0587 16.4034 10.8254L18.1067 9.84537C18.8417 9.42537 19.7867 9.67036 20.2067 10.4054C20.6267 11.1404 20.3817 12.0854 19.6467 12.5054L17.9434 13.4854C17.5584 13.7187 17.5584 14.2787 17.9434 14.5004Z" fill="#121A26"/>
</svg>