<svg width="18" height="18" viewBox="0 0 18 18" fill="none" xmlns="http://www.w3.org/2000/svg">
    <path d="M9 0C4.03785 0 0 4.03785 0 9C0 13.9621 4.03785 18 9 18C13.9621 18 18 13.9621 18 9C18 4.03785 13.9621 0 9 0ZM12.1765 10.0264H8.0424L9.0063 11.1609C9.37305 11.5929 9.3204 12.2404 8.88795 12.6081C8.6949 12.7714 8.4591 12.8525 8.22375 12.8525C7.93305 12.8525 7.64415 12.73 7.4412 12.4897L5.0409 9.66465C4.71555 9.2808 4.71555 8.7183 5.0409 8.3358L7.4412 5.51025C7.8075 5.0778 8.4555 5.02515 8.88795 5.39145C9.3204 5.7582 9.37305 6.40665 9.0063 6.8391L8.0424 7.97355H12.1765C12.7435 7.97355 13.2025 8.433 13.2025 9C13.2025 9.567 12.7431 10.0264 12.1765 10.0264Z" fill="#94A3B8"/>
</svg>