<svg width="120" height="120" viewBox="0 0 120 120" fill="none" xmlns="http://www.w3.org/2000/svg">
    <g clip-path="url(#clip0_1091_10928)">
        <path d="M60 120C93.1371 120 120 93.1371 120 60C120 26.8629 93.1371 0 60 0C26.8629 0 0 26.8629 0 60C0 93.1371 26.8629 120 60 120Z" fill="#DB2838"/>
        <path d="M34.832 87.0661L67.198 119.432C94.4535 116.214 116.031 94.8264 119.438 67.5708L86.8825 35.0156L34.832 87.0661Z" fill="#AD0E0E"/>
        <path d="M88.3947 73.2311C91.0446 75.8809 91.0446 80.4235 88.3947 83.0734L83.095 88.373C80.4452 91.0229 75.9026 91.0229 73.2528 88.373L31.6124 46.7327C28.9625 44.0828 28.9625 39.5402 31.6124 36.8904L37.1013 31.4014C39.7512 28.7516 44.2938 28.7516 46.9436 31.4014L88.3947 73.2311Z" fill="white"/>
        <path d="M66.425 51.0938L51.0938 66.425L73.2389 88.3808C75.8887 91.0307 80.4313 91.0307 83.0811 88.3808L88.5701 82.8919C91.2199 80.242 91.2199 75.6994 88.5701 73.0496L66.425 51.0938Z" fill="#D6D6D6"/>
        <path d="M73.2528 31.6104C75.9026 28.9606 80.4452 28.9606 83.095 31.6104L88.584 37.0994C91.2338 39.7492 91.2338 44.2918 88.584 46.9417L46.7543 88.3928C44.1045 91.0426 39.5619 91.0426 36.9121 88.3928L31.6124 83.0931C28.9625 80.4432 28.9625 75.9007 31.6124 73.2508L73.2528 31.6104Z" fill="white"/>
    </g>
    <defs>
        <clipPath id="clip0_1091_10928">
            <rect width="120" height="120" fill="white"/>
        </clipPath>
    </defs>
</svg>
