<svg width="120" height="120" viewBox="0 0 120 120" fill="none" xmlns="http://www.w3.org/2000/svg">
    <g clip-path="url(#clip0_1091_10918)">
        <path d="M60 120C93.1371 120 120 93.1371 120 60C120 26.8629 93.1371 0 60 0C26.8629 0 0 26.8629 0 60C0 93.1371 26.8629 120 60 120Z" fill="#4CAF6E"/>
        <path d="M54 87.7667L81.0302 116C103.417 109.764 120 88.4596 120 62.9977C120 62.4781 120 61.9584 120 61.4388L98.7739 41L54 87.7667Z" fill="#398352"/>
        <path d="M67.6966 73.8779C70.0479 76.2292 70.0479 80.2599 67.6966 82.6112L62.8261 87.4817C60.4749 89.833 56.4441 89.833 54.0928 87.4817L32.7635 65.9844C30.4122 63.6331 30.4122 59.6024 32.7635 57.2511L37.6339 52.3806C39.9852 50.0294 44.016 50.0294 46.3672 52.3806L67.6966 73.8779Z" fill="white"/>
        <path d="M86.3409 36.7635C88.6921 34.4122 92.7229 34.4122 95.0741 36.7635L99.9446 41.6339C102.296 43.9852 102.296 48.0159 99.9446 50.3672L62.9961 87.1478C60.6449 89.499 56.6141 89.499 54.2628 87.1478L49.3924 82.2773C47.0411 79.926 47.0411 75.8953 49.3924 73.544L86.3409 36.7635Z" fill="white"/>
    </g>
    <defs>
        <clipPath id="clip0_1091_10918">
            <rect width="120" height="120" fill="white"/>
        </clipPath>
    </defs>
</svg>
